<mxfile host="app.diagrams.net" modified="2024-02-19T23:51:06.389Z" agent="Mozilla/5.0 (Windows NT 10.0; Win64; x64; rv:122.0) Gecko/20100101 Firefox/122.0" etag="vfyriV5baTkOTyWh_92s" version="23.1.5" type="device">
  <diagram name="Page-1" id="-RKyPFANdTn-KogutB0Q">
    <mxGraphModel dx="1857" dy="2090" grid="1" gridSize="10" guides="1" tooltips="1" connect="1" arrows="1" fold="1" page="1" pageScale="1" pageWidth="850" pageHeight="1100" math="0" shadow="0">
      <root>
        <mxCell id="0" />
        <mxCell id="1" parent="0" />
        <mxCell id="PhqKMk_581CaprHoSEa--1" value="Actor" style="shape=umlActor;verticalLabelPosition=bottom;verticalAlign=top;html=1;outlineConnect=0;" parent="1" vertex="1">
          <mxGeometry x="45" y="-1000" width="50" height="80" as="geometry" />
        </mxCell>
        <mxCell id="PhqKMk_581CaprHoSEa--9" value="" style="whiteSpace=wrap;html=1;aspect=fixed;" parent="1" vertex="1">
          <mxGeometry x="120" y="-1040" width="720" height="720" as="geometry" />
        </mxCell>
        <mxCell id="PhqKMk_581CaprHoSEa--10" value="Visiteur" style="text;strokeColor=none;fillColor=none;align=left;verticalAlign=top;spacingLeft=4;spacingRight=4;overflow=hidden;rotatable=0;points=[[0,0.5],[1,0.5]];portConstraint=eastwest;whiteSpace=wrap;html=1;" parent="1" vertex="1">
          <mxGeometry x="45" y="-1026" width="100" height="26" as="geometry" />
        </mxCell>
        <mxCell id="PhqKMk_581CaprHoSEa--11" value="Employé" style="text;strokeColor=none;fillColor=none;align=left;verticalAlign=top;spacingLeft=4;spacingRight=4;overflow=hidden;rotatable=0;points=[[0,0.5],[1,0.5]];portConstraint=eastwest;whiteSpace=wrap;html=1;" parent="1" vertex="1">
          <mxGeometry x="50" y="-750" width="100" height="26" as="geometry" />
        </mxCell>
        <mxCell id="PhqKMk_581CaprHoSEa--12" value="Admin" style="text;strokeColor=none;fillColor=none;align=left;verticalAlign=top;spacingLeft=4;spacingRight=4;overflow=hidden;rotatable=0;points=[[0,0.5],[1,0.5]];portConstraint=eastwest;whiteSpace=wrap;html=1;" parent="1" vertex="1">
          <mxGeometry x="55" y="-500" width="100" height="26" as="geometry" />
        </mxCell>
        <mxCell id="PhqKMk_581CaprHoSEa--17" value="" style="html=1;whiteSpace=wrap;" parent="1" vertex="1">
          <mxGeometry x="325" y="-1022.75" width="200" height="125.5" as="geometry" />
        </mxCell>
        <mxCell id="PhqKMk_581CaprHoSEa--14" value="&lt;div&gt;Filtrer véhicule&lt;/div&gt;&lt;div&gt;&lt;br&gt;&lt;/div&gt;&lt;div&gt;Laisser avis&lt;/div&gt;&lt;div&gt;&lt;br&gt;&lt;/div&gt;&lt;div&gt;Filtrer véhicule&lt;br&gt;&lt;/div&gt;" style="text;strokeColor=none;fillColor=none;align=left;verticalAlign=top;spacingLeft=4;spacingRight=4;overflow=hidden;rotatable=0;points=[[0,0.5],[1,0.5]];portConstraint=eastwest;whiteSpace=wrap;html=1;" parent="1" vertex="1">
          <mxGeometry x="360" y="-1000" width="140" height="80" as="geometry" />
        </mxCell>
        <mxCell id="PhqKMk_581CaprHoSEa--20" value="" style="html=1;whiteSpace=wrap;" parent="1" vertex="1">
          <mxGeometry x="325" y="-510" width="200" height="130" as="geometry" />
        </mxCell>
        <mxCell id="PhqKMk_581CaprHoSEa--25" value="" style="html=1;whiteSpace=wrap;" parent="1" vertex="1">
          <mxGeometry x="325" y="-750" width="200" height="130" as="geometry" />
        </mxCell>
        <mxCell id="PhqKMk_581CaprHoSEa--27" value="&lt;div&gt;Se connecter&lt;/div&gt;&lt;div&gt;&lt;br&gt;&lt;/div&gt;&lt;div&gt;Modifier service&lt;/div&gt;&lt;div&gt;&lt;br&gt;&lt;/div&gt;&lt;div&gt;Definir horaires&lt;/div&gt;&lt;div&gt;&lt;br&gt;&lt;/div&gt;&lt;div&gt;Exposer voitures&lt;br&gt;&lt;/div&gt;&lt;div&gt;&lt;br&gt;&lt;/div&gt;&lt;div&gt;&lt;br&gt;&lt;/div&gt;" style="text;strokeColor=none;fillColor=none;align=left;verticalAlign=top;spacingLeft=4;spacingRight=4;overflow=hidden;rotatable=0;points=[[0,0.5],[1,0.5]];portConstraint=eastwest;whiteSpace=wrap;html=1;" parent="1" vertex="1">
          <mxGeometry x="360" y="-500" width="130" height="106" as="geometry" />
        </mxCell>
        <mxCell id="PhqKMk_581CaprHoSEa--29" value="&lt;div&gt;Laisser témoignage&lt;/div&gt;&lt;div&gt;&lt;br&gt;&lt;/div&gt;&lt;div&gt;Exposer voiture&lt;br&gt;&lt;/div&gt;" style="text;strokeColor=none;fillColor=none;align=left;verticalAlign=top;spacingLeft=4;spacingRight=4;overflow=hidden;rotatable=0;points=[[0,0.5],[1,0.5]];portConstraint=eastwest;whiteSpace=wrap;html=1;" parent="1" vertex="1">
          <mxGeometry x="360" y="-730" width="170" height="70" as="geometry" />
        </mxCell>
        <mxCell id="PhqKMk_581CaprHoSEa--46" value="Actor" style="shape=umlActor;verticalLabelPosition=bottom;verticalAlign=top;html=1;outlineConnect=0;" parent="1" vertex="1">
          <mxGeometry x="60" y="-720" width="50" height="80" as="geometry" />
        </mxCell>
        <mxCell id="PhqKMk_581CaprHoSEa--47" value="Actor" style="shape=umlActor;verticalLabelPosition=bottom;verticalAlign=top;html=1;outlineConnect=0;" parent="1" vertex="1">
          <mxGeometry x="60" y="-460" width="50" height="80" as="geometry" />
        </mxCell>
        <mxCell id="PhqKMk_581CaprHoSEa--49" value="dispatch" style="html=1;verticalAlign=bottom;endArrow=block;curved=0;rounded=0;entryX=1;entryY=0.5;entryDx=0;entryDy=0;" parent="1" target="PhqKMk_581CaprHoSEa--17" edge="1">
          <mxGeometry width="80" relative="1" as="geometry">
            <mxPoint x="530" y="-460" as="sourcePoint" />
            <mxPoint x="610" y="-460" as="targetPoint" />
            <Array as="points">
              <mxPoint x="840" y="-680" />
            </Array>
          </mxGeometry>
        </mxCell>
        <mxCell id="PhqKMk_581CaprHoSEa--50" value="" style="html=1;verticalAlign=bottom;endArrow=block;curved=0;rounded=0;exitX=0.5;exitY=1;exitDx=0;exitDy=0;" parent="1" source="PhqKMk_581CaprHoSEa--25" edge="1">
          <mxGeometry width="80" relative="1" as="geometry">
            <mxPoint x="380" y="-590" as="sourcePoint" />
            <mxPoint x="425" y="-510" as="targetPoint" />
          </mxGeometry>
        </mxCell>
        <mxCell id="PhqKMk_581CaprHoSEa--51" value="" style="html=1;verticalAlign=bottom;endArrow=block;curved=0;rounded=0;exitX=0.5;exitY=0;exitDx=0;exitDy=0;entryX=0.5;entryY=1;entryDx=0;entryDy=0;" parent="1" source="PhqKMk_581CaprHoSEa--25" target="PhqKMk_581CaprHoSEa--17" edge="1">
          <mxGeometry width="80" relative="1" as="geometry">
            <mxPoint x="380" y="-590" as="sourcePoint" />
            <mxPoint x="460" y="-590" as="targetPoint" />
          </mxGeometry>
        </mxCell>
        <mxCell id="PhqKMk_581CaprHoSEa--52" value="" style="html=1;verticalAlign=bottom;endArrow=block;curved=0;rounded=0;exitX=1;exitY=0.3333333333333333;exitDx=0;exitDy=0;exitPerimeter=0;entryX=-0.035;entryY=0.394;entryDx=0;entryDy=0;entryPerimeter=0;" parent="1" source="PhqKMk_581CaprHoSEa--1" target="PhqKMk_581CaprHoSEa--17" edge="1">
          <mxGeometry width="80" relative="1" as="geometry">
            <mxPoint x="380" y="-590" as="sourcePoint" />
            <mxPoint x="460" y="-590" as="targetPoint" />
          </mxGeometry>
        </mxCell>
        <mxCell id="PhqKMk_581CaprHoSEa--53" value="1" style="endArrow=open;html=1;endSize=12;startArrow=diamondThin;startSize=14;startFill=1;edgeStyle=orthogonalEdgeStyle;align=left;verticalAlign=bottom;rounded=0;exitX=1;exitY=0.3333333333333333;exitDx=0;exitDy=0;exitPerimeter=0;entryX=-0.002;entryY=0.59;entryDx=0;entryDy=0;entryPerimeter=0;" parent="1" source="PhqKMk_581CaprHoSEa--47" target="PhqKMk_581CaprHoSEa--20" edge="1">
          <mxGeometry x="-1" y="3" relative="1" as="geometry">
            <mxPoint x="340" y="-590" as="sourcePoint" />
            <mxPoint x="500" y="-590" as="targetPoint" />
          </mxGeometry>
        </mxCell>
        <mxCell id="PhqKMk_581CaprHoSEa--54" value="" style="html=1;verticalAlign=bottom;endArrow=block;curved=0;rounded=0;exitX=-0.01;exitY=0.486;exitDx=0;exitDy=0;exitPerimeter=0;" parent="1" source="PhqKMk_581CaprHoSEa--9" edge="1">
          <mxGeometry width="80" relative="1" as="geometry">
            <mxPoint x="380" y="-590" as="sourcePoint" />
            <mxPoint x="330" y="-690" as="targetPoint" />
          </mxGeometry>
        </mxCell>
      </root>
    </mxGraphModel>
  </diagram>
</mxfile>
